<svg xmlns="http://www.w3.org/2000/svg" xmlns:xlink="http://www.w3.org/1999/xlink" viewBox="0 0 128 128" id="Instagram"><defs><clipPath id="b"><circle cx="64" cy="-99" r="64" fill="none"></circle></clipPath><clipPath id="c"><path fill="none" d="M64 128a64 64 0 1 1 64-64 64.07 64.07 0 0 1-64 64ZM64 8a56 56 0 1 0 56 56A56.06 56.06 0 0 0 64 8Z"></path></clipPath><clipPath id="e"><path fill="none" d="M64 48a16 16 0 1 0 16 16 16 16 0 0 0-16-16Zm0 24a8 8 0 1 1 8-8 8 8 0 0 1-8 8Z"></path></clipPath><clipPath id="f"><path fill="none" d="M84 100H44a16 16 0 0 1-16-16V44a16 16 0 0 1 16-16h40a16 16 0 0 1 16 16v40a16 16 0 0 1-16 16ZM44 36a8 8 0 0 0-8 8v40a8 8 0 0 0 8 8h40a8 8 0 0 0 8-8V44a8 8 0 0 0-8-8Z"></path></clipPath><clipPath id="g"><circle cx="82" cy="46" r="5" fill="none"></circle></clipPath><clipPath id="i"><circle cx="82" cy="-280" r="5" fill="none"></circle></clipPath><radialGradient id="a" cx="27.5" cy="-41.5" r="137.5" gradientUnits="userSpaceOnUse"><stop offset="0" stop-color="#9ae45f" class="stopColorffd676 svgShape"></stop><stop offset=".25" stop-color="#f25e54" class="stopColorf2a454 svgShape"></stop><stop offset=".38" stop-color="#d85b53" class="stopColorf05c3c svgShape"></stop><stop offset=".7" stop-color="#d45985" class="stopColorc22f86 svgShape"></stop><stop offset=".96" stop-color="#ad667f" class="stopColor6666ad svgShape"></stop><stop offset=".99" stop-color="#b25c7b" class="stopColor5c6cb2 svgShape"></stop></radialGradient><radialGradient id="d" cx="27.5" cy="121.5" r="148.5" xlink:href="#a"></radialGradient><radialGradient id="h" cx="13.87" cy="140.38" r="185.63" xlink:href="#a"></radialGradient><radialGradient id="j" cx="13.87" cy="-185.62" r="185.63" xlink:href="#a"></radialGradient></defs><g clip-path="url(#b)" fill="#26d7fe" class="color000000 svgShape"><circle cx="27.5" cy="-41.5" r="137.5" fill="url(#a)"></circle></g><g clip-path="url(#c)" fill="#26d7fe" class="color000000 svgShape"><circle cx="27.5" cy="121.5" r="148.5" fill="url(#d)"></circle></g><g clip-path="url(#e)" fill="#26d7fe" class="color000000 svgShape"><circle cx="27.5" cy="121.5" r="148.5" fill="url(#d)"></circle></g><g clip-path="url(#f)" fill="#26d7fe" class="color000000 svgShape"><circle cx="27.5" cy="121.5" r="148.5" fill="url(#d)"></circle></g><g clip-path="url(#g)" fill="#26d7fe" class="color000000 svgShape"><circle cx="13.87" cy="140.38" r="185.63" fill="url(#h)"></circle></g><g clip-path="url(#i)" fill="#26d7fe" class="color000000 svgShape"><circle cx="13.87" cy="-185.62" r="185.63" fill="url(#j)"></circle></g></svg>